<mxfile host="app.diagrams.net" agent="Mozilla/5.0 (X11; Linux x86_64) AppleWebKit/537.36 (KHTML, like Gecko) Chrome/114.0.0.0 Safari/537.36" version="24.7.7">
  <diagram name="Halaman-1" id="OUFjafkKrs7-NyCrYfaP">
    <mxGraphModel dx="1753" dy="1045" grid="1" gridSize="10" guides="1" tooltips="1" connect="1" arrows="1" fold="1" page="1" pageScale="1" pageWidth="827" pageHeight="1169" math="0" shadow="0">
      <root>
        <mxCell id="0" />
        <mxCell id="1" parent="0" />
        <mxCell id="SdMC9yN495Ru9d9ujnUF-1" value="SISWA" style="shape=umlActor;verticalLabelPosition=bottom;verticalAlign=top;html=1;outlineConnect=0;" vertex="1" parent="1">
          <mxGeometry x="40" y="340" width="140" height="330" as="geometry" />
        </mxCell>
        <mxCell id="SdMC9yN495Ru9d9ujnUF-3" value="PERPUSTAKAAN" style="shape=umlActor;verticalLabelPosition=bottom;verticalAlign=top;html=1;outlineConnect=0;" vertex="1" parent="1">
          <mxGeometry x="670" y="340" width="140" height="330" as="geometry" />
        </mxCell>
        <mxCell id="SdMC9yN495Ru9d9ujnUF-4" value="" style="rounded=0;whiteSpace=wrap;html=1;" vertex="1" parent="1">
          <mxGeometry x="240" y="150" width="360" height="690" as="geometry" />
        </mxCell>
        <mxCell id="SdMC9yN495Ru9d9ujnUF-6" value="" style="ellipse;whiteSpace=wrap;html=1;" vertex="1" parent="1">
          <mxGeometry x="325" y="660" width="180" height="80" as="geometry" />
        </mxCell>
        <mxCell id="SdMC9yN495Ru9d9ujnUF-7" value="" style="ellipse;whiteSpace=wrap;html=1;" vertex="1" parent="1">
          <mxGeometry x="330" y="560" width="180" height="80" as="geometry" />
        </mxCell>
        <mxCell id="SdMC9yN495Ru9d9ujnUF-8" value="" style="ellipse;whiteSpace=wrap;html=1;" vertex="1" parent="1">
          <mxGeometry x="324" y="455" width="180" height="80" as="geometry" />
        </mxCell>
        <mxCell id="SdMC9yN495Ru9d9ujnUF-9" value="" style="ellipse;whiteSpace=wrap;html=1;" vertex="1" parent="1">
          <mxGeometry x="325" y="340" width="180" height="80" as="geometry" />
        </mxCell>
        <mxCell id="SdMC9yN495Ru9d9ujnUF-11" value="" style="ellipse;whiteSpace=wrap;html=1;" vertex="1" parent="1">
          <mxGeometry x="324" y="240" width="180" height="80" as="geometry" />
        </mxCell>
        <mxCell id="SdMC9yN495Ru9d9ujnUF-12" value="&lt;font style=&quot;font-size: 18px;&quot;&gt;Login&lt;/font&gt;" style="text;html=1;align=center;verticalAlign=middle;resizable=0;points=[];autosize=1;strokeColor=none;fillColor=none;" vertex="1" parent="1">
          <mxGeometry x="380" y="260" width="70" height="40" as="geometry" />
        </mxCell>
        <mxCell id="SdMC9yN495Ru9d9ujnUF-15" value="&lt;span style=&quot;font-size: 18px;&quot;&gt;Cari Buku&lt;/span&gt;" style="text;html=1;align=center;verticalAlign=middle;resizable=0;points=[];autosize=1;strokeColor=none;fillColor=none;" vertex="1" parent="1">
          <mxGeometry x="365" y="370" width="100" height="40" as="geometry" />
        </mxCell>
        <mxCell id="SdMC9yN495Ru9d9ujnUF-16" value="&lt;span style=&quot;font-size: 18px;&quot;&gt;Peminjam Buku&lt;/span&gt;" style="text;html=1;align=center;verticalAlign=middle;resizable=0;points=[];autosize=1;strokeColor=none;fillColor=none;" vertex="1" parent="1">
          <mxGeometry x="345" y="580" width="150" height="40" as="geometry" />
        </mxCell>
        <mxCell id="SdMC9yN495Ru9d9ujnUF-17" value="&lt;font style=&quot;font-size: 18px;&quot;&gt;Detail Buku&lt;/font&gt;" style="text;html=1;align=center;verticalAlign=middle;resizable=0;points=[];autosize=1;strokeColor=none;fillColor=none;" vertex="1" parent="1">
          <mxGeometry x="350" y="475" width="120" height="40" as="geometry" />
        </mxCell>
        <mxCell id="SdMC9yN495Ru9d9ujnUF-18" value="&lt;font style=&quot;font-size: 18px;&quot;&gt;Laporan statistik&lt;/font&gt;" style="text;html=1;align=center;verticalAlign=middle;resizable=0;points=[];autosize=1;strokeColor=none;fillColor=none;" vertex="1" parent="1">
          <mxGeometry x="340" y="680" width="150" height="40" as="geometry" />
        </mxCell>
        <mxCell id="SdMC9yN495Ru9d9ujnUF-19" value="&lt;span style=&quot;font-size: 18px;&quot;&gt;Perpus Digital&lt;/span&gt;" style="text;html=1;align=center;verticalAlign=middle;resizable=0;points=[];autosize=1;strokeColor=none;fillColor=none;" vertex="1" parent="1">
          <mxGeometry x="350" y="170" width="140" height="40" as="geometry" />
        </mxCell>
        <mxCell id="SdMC9yN495Ru9d9ujnUF-20" value="" style="endArrow=none;html=1;rounded=0;entryX=0.026;entryY=0.688;entryDx=0;entryDy=0;entryPerimeter=0;" edge="1" parent="1" source="SdMC9yN495Ru9d9ujnUF-1" target="SdMC9yN495Ru9d9ujnUF-11">
          <mxGeometry width="50" height="50" relative="1" as="geometry">
            <mxPoint x="540" y="490" as="sourcePoint" />
            <mxPoint x="590" y="440" as="targetPoint" />
          </mxGeometry>
        </mxCell>
        <mxCell id="SdMC9yN495Ru9d9ujnUF-26" value="" style="endArrow=none;html=1;rounded=0;" edge="1" parent="1" source="SdMC9yN495Ru9d9ujnUF-1" target="SdMC9yN495Ru9d9ujnUF-8">
          <mxGeometry width="50" height="50" relative="1" as="geometry">
            <mxPoint x="190" y="448" as="sourcePoint" />
            <mxPoint x="339" y="305" as="targetPoint" />
          </mxGeometry>
        </mxCell>
        <mxCell id="SdMC9yN495Ru9d9ujnUF-28" value="" style="endArrow=none;html=1;rounded=0;entryX=0;entryY=0.5;entryDx=0;entryDy=0;" edge="1" parent="1" source="SdMC9yN495Ru9d9ujnUF-1" target="SdMC9yN495Ru9d9ujnUF-9">
          <mxGeometry width="50" height="50" relative="1" as="geometry">
            <mxPoint x="200" y="458" as="sourcePoint" />
            <mxPoint x="349" y="315" as="targetPoint" />
          </mxGeometry>
        </mxCell>
        <mxCell id="SdMC9yN495Ru9d9ujnUF-29" value="" style="endArrow=none;html=1;rounded=0;entryX=0.224;entryY=0.083;entryDx=0;entryDy=0;entryPerimeter=0;" edge="1" parent="1" source="SdMC9yN495Ru9d9ujnUF-1" target="SdMC9yN495Ru9d9ujnUF-7">
          <mxGeometry width="50" height="50" relative="1" as="geometry">
            <mxPoint x="190" y="528" as="sourcePoint" />
            <mxPoint x="341" y="555" as="targetPoint" />
          </mxGeometry>
        </mxCell>
        <mxCell id="SdMC9yN495Ru9d9ujnUF-30" value="" style="endArrow=none;html=1;rounded=0;entryX=0.733;entryY=0.021;entryDx=0;entryDy=0;entryPerimeter=0;" edge="1" parent="1" source="SdMC9yN495Ru9d9ujnUF-3" target="SdMC9yN495Ru9d9ujnUF-6">
          <mxGeometry width="50" height="50" relative="1" as="geometry">
            <mxPoint x="190" y="545" as="sourcePoint" />
            <mxPoint x="380" y="627" as="targetPoint" />
          </mxGeometry>
        </mxCell>
        <mxCell id="SdMC9yN495Ru9d9ujnUF-31" value="" style="endArrow=none;html=1;rounded=0;entryX=0.961;entryY=0.313;entryDx=0;entryDy=0;entryPerimeter=0;" edge="1" parent="1" source="SdMC9yN495Ru9d9ujnUF-3" target="SdMC9yN495Ru9d9ujnUF-8">
          <mxGeometry width="50" height="50" relative="1" as="geometry">
            <mxPoint x="680" y="567" as="sourcePoint" />
            <mxPoint x="472" y="722" as="targetPoint" />
          </mxGeometry>
        </mxCell>
        <mxCell id="SdMC9yN495Ru9d9ujnUF-32" value="" style="endArrow=none;html=1;rounded=0;" edge="1" parent="1" source="SdMC9yN495Ru9d9ujnUF-3" target="SdMC9yN495Ru9d9ujnUF-9">
          <mxGeometry width="50" height="50" relative="1" as="geometry">
            <mxPoint x="680" y="527" as="sourcePoint" />
            <mxPoint x="507" y="555" as="targetPoint" />
          </mxGeometry>
        </mxCell>
        <mxCell id="SdMC9yN495Ru9d9ujnUF-33" value="" style="endArrow=none;html=1;rounded=0;entryX=0.97;entryY=0.646;entryDx=0;entryDy=0;entryPerimeter=0;" edge="1" parent="1" source="SdMC9yN495Ru9d9ujnUF-3" target="SdMC9yN495Ru9d9ujnUF-11">
          <mxGeometry width="50" height="50" relative="1" as="geometry">
            <mxPoint x="680" y="507" as="sourcePoint" />
            <mxPoint x="511" y="489" as="targetPoint" />
          </mxGeometry>
        </mxCell>
      </root>
    </mxGraphModel>
  </diagram>
</mxfile>
